HIERARCHY
ROOT Hips
{
	OFFSET -3.958830 18.904000 13.208200
	CHANNELS 6 Xposition Yposition Zposition Zrotation Yrotation Xrotation 
	JOINT LHipJoint
	{
		OFFSET 0.000000 0.000000 0.000000
		CHANNELS 3 Zrotation Yrotation Xrotation
		JOINT LeftUpLeg
		{
			OFFSET 1.800000 -1.400000 0.085000
			CHANNELS 3 Zrotation Yrotation Xrotation
			JOINT LeftLeg
			{
				OFFSET 2.215000 -6.000000 0.000000
				CHANNELS 3 Zrotation Yrotation Xrotation
				JOINT LeftFoot
				{
					OFFSET 2.500000 -6.900000 0.000000
					CHANNELS 3 Zrotation Yrotation Xrotation
					JOINT LeftToeBase
					{
						OFFSET 0.200000 -0.500000 1.950000
						CHANNELS 3 Zrotation Yrotation Xrotation
						End Site
						{
							OFFSET 0.000000 0.000000 0.000000
						}
					}
				}
			}
		}
	}
	JOINT RHipJoint
	{
		OFFSET 0.000000 0.000000 0.000000
		CHANNELS 3 Zrotation Yrotation Xrotation
		JOINT RightUpLeg
		{
			OFFSET -1.800000 -1.400000 0.085000
			CHANNELS 3 Zrotation Yrotation Xrotation
			JOINT RightLeg
			{
				OFFSET -2.215000 -6.000000 0.000000
				CHANNELS 3 Zrotation Yrotation Xrotation
				JOINT RightFoot
				{
					OFFSET -2.500000 -6.900000 0.000000
					CHANNELS 3 Zrotation Yrotation Xrotation
					JOINT RightToeBase
					{
						OFFSET -0.200000 -0.500000 1.950000
						CHANNELS 3 Zrotation Yrotation Xrotation
						End Site
						{
							OFFSET 0.000000 0.000000 0.000000
						}
					}
				}
			}
		}
	}
	JOINT LowerBack
	{
		OFFSET 0.000000 0.000000 0.000000
		CHANNELS 3 Zrotation Yrotation Xrotation
		JOINT Spine
		{
			OFFSET -0.087000 1.940000 -0.288900
			CHANNELS 3 Zrotation Yrotation Xrotation
			JOINT Spine1
			{
				OFFSET 0.000000 1.950000 0.060000
				CHANNELS 3 Zrotation Yrotation Xrotation
				JOINT Neck
				{
					OFFSET 0.000000 0.000000 0.000000
					CHANNELS 3 Zrotation Yrotation Xrotation
					JOINT Neck1
					{
						OFFSET 0.000000 1.600000 0.340000
						CHANNELS 3 Zrotation Yrotation Xrotation
						JOINT Head
						{
							OFFSET 0.000000 1.667000 -0.240000
							CHANNELS 3 Zrotation Yrotation Xrotation
							End Site
							{
								OFFSET 0.000000 0.000000 0.000000
							}
						}
					}
				}
				JOINT LeftShoulder
				{
					OFFSET 0.000000 0.000000 0.000000
					CHANNELS 3 Zrotation Yrotation Xrotation
					JOINT LeftArm
					{
						OFFSET 2.700000 1.550000 -0.730000
						CHANNELS 3 Zrotation Yrotation Xrotation
						JOINT LeftForeArm
						{
							OFFSET 5.450000 0.000000 0.000000
							CHANNELS 3 Zrotation Yrotation Xrotation
							JOINT LeftHand
							{
								OFFSET 3.450000 0.000000 0.000000
								CHANNELS 3 Zrotation Yrotation Xrotation
								JOINT LeftHandIndex1
								{
									OFFSET 0.750000 0.000000 0.000000
									CHANNELS 3 Zrotation Yrotation Xrotation
									End Site
									{
										OFFSET 0.000000 0.000000 0.000000
									}
								}
							}
						}
					}
				}
				JOINT RightShoulder
				{
					OFFSET 0.000000 0.000000 0.000000
					CHANNELS 3 Zrotation Yrotation Xrotation
					JOINT RightArm
					{
						OFFSET -2.700000 1.550000 -0.730000
						CHANNELS 3 Zrotation Yrotation Xrotation
						JOINT RightForeArm
						{
							OFFSET -5.450000 0.000000 0.000000
							CHANNELS 3 Zrotation Yrotation Xrotation
							JOINT RightHand
							{
								OFFSET -3.450000 0.000000 0.000000
								CHANNELS 3 Zrotation Yrotation Xrotation
								JOINT RightHandIndex1
								{
									OFFSET -0.750000 0.000000 0.000000
									CHANNELS 3 Zrotation Yrotation Xrotation
									End Site
									{
										OFFSET 0.000000 0.000000 0.000000
									}
								}
							}
						}
					}
				}
			}
		}
	}
}
MOTION
Frames: 10
Frame Time: 0.016667
0.376660 16.574730 -8.916280 4.028644 -6.808468 11.094142 -15.043006 12.162623 3.289299 24.113659 0.613869 -34.162274 7.707575 4.068500 16.671674 0.020734 3.832634 3.169455 0.410090 0.212180 0.285560 18.710902 -8.977581 4.496773 -14.465908 11.657841 -44.450514 8.783967 -12.194690 45.027573 -0.824896 -6.886811 1.981359 -0.082410 0.076600 0.306390 -4.393548 -1.710063 -8.652794 34.285019 -17.617018 35.506081 -17.864448 -4.953171 -12.165268 7.230206 -8.094981 -2.242163 -12.501267 2.182803 29.852923 -8.503440 2.479250 -13.335950 -17.286525 19.181135 -7.193034 -34.116975 12.591115 -7.897856 -7.515389 2.984660 -1.585537 -3.672071 2.783114 0.317810 0.000350 0.140720 0.264710 -0.093068 -12.360981 4.437638 36.305854 -8.931393 -15.120183 -31.864957 85.543050 -27.012869 1.899860 -1.689795 0.126750 -0.067590 -0.267930 0.036040 
0.381280 16.560530 -8.914710 4.412424 -7.064023 10.902491 -15.060056 12.428600 3.096083 23.425393 0.529201 -32.291694 7.487287 3.996849 16.164051 -0.027210 3.772215 3.170753 0.358280 0.120590 0.274120 18.656669 -8.929261 4.597170 -15.180362 11.880446 -44.661145 9.202746 -12.366396 45.441799 -0.827765 -6.999281 1.912449 -0.131570 0.069280 0.332640 -4.267218 -2.107762 -8.640430 33.332516 -17.343133 36.591327 -16.698283 -4.796763 -14.310954 7.132472 -8.232840 -2.042150 -12.756770 2.881558 30.458970 -9.168130 3.272830 -13.284710 -16.476688 20.221256 -7.460228 -33.145482 12.635052 -7.071534 -5.807956 8.177561 -1.674402 -3.781137 2.703643 0.346200 -0.000490 0.125480 0.204410 -0.691860 -12.740953 3.886370 38.231478 -7.222926 -17.386306 -61.834533 85.278931 -46.815347 1.303736 0.164134 0.117380 -0.103290 -0.200770 0.004710 
0.401440 16.529280 -8.903170 4.041760 -7.842135 12.080049 -15.101229 12.610082 2.943522 22.885519 0.535969 -31.179538 6.833335 4.207300 16.781523 -0.055122 3.830916 3.122234 0.316990 0.055290 0.271690 18.619105 -8.682732 4.826121 -15.533669 12.855184 -46.101018 9.801536 -12.413047 45.911891 -0.819894 -7.092823 1.857995 -0.155720 0.053860 0.330400 -4.140910 -2.595550 -8.653940 33.327629 -16.866148 36.173966 -14.583861 -3.882727 -16.339679 6.405834 -8.078078 -2.070161 -12.305734 4.125902 30.331035 -10.134370 5.499990 -11.710270 -14.973791 22.759869 -8.422228 -31.733060 13.925764 -6.549360 -2.457188 13.618520 -1.220518 -3.924223 2.593597 0.346880 0.007520 0.094220 0.151700 -0.957906 -14.423785 5.145036 41.214908 -2.071972 -6.535634 -102.325770 64.414875 -67.673498 1.812284 0.384777 0.098500 -0.151440 -0.160010 -0.031170 
0.421920 16.491270 -8.911840 3.970636 -8.820363 12.404746 -15.095778 12.728651 2.758414 22.067602 0.432650 -30.121274 5.685291 4.707646 19.492990 -0.112828 4.136590 3.018959 0.314960 0.019680 0.259610 18.623497 -8.593877 5.027177 -16.287881 13.644729 -47.174990 10.386851 -12.456704 46.703045 -0.849829 -7.281888 1.794632 -0.146100 0.122780 0.362010 -4.141303 -2.681158 -8.611806 33.023879 -16.216354 35.721570 -12.064740 -3.141484 -17.166299 4.783540 -8.125169 -1.776204 -11.998710 5.977537 30.663929 -8.336100 6.606910 -10.506700 -13.387850 23.821439 -8.325849 -30.180070 15.286730 -6.088009 1.905520 17.776873 -0.286795 -4.107410 2.485947 0.372050 0.049600 0.065580 0.158190 0.338705 -14.769491 3.967599 43.295809 3.573044 -2.392012 -116.258073 48.153725 -70.655120 2.223675 -1.443667 0.062080 -0.128020 -0.119930 -0.044600 
0.428300 16.512590 -8.962110 4.018451 -10.092171 10.137725 -15.208928 13.352290 2.670556 21.242354 0.582337 -27.654681 3.848075 5.687092 22.975054 -0.122514 4.648825 2.838808 0.316960 0.005550 0.303760 18.423950 -8.512442 4.973768 -15.817397 14.238255 -44.878776 10.546999 -11.840981 46.779520 -0.866038 -7.184765 1.832119 -0.141910 0.111720 0.342090 -3.652918 -3.735712 -8.627980 29.554951 -15.653887 40.427423 -7.564500 -1.593358 -18.190353 4.372930 -7.149421 -2.754619 -10.169422 7.055122 33.163980 -9.390510 8.634890 -11.241660 -13.334828 22.436773 -7.428245 -28.401520 18.252570 -6.018008 -1.203022 21.025893 -0.947934 -4.088411 2.372965 0.444880 0.028500 0.095850 0.151510 1.321885 -12.232461 2.894265 44.118773 11.816709 0.817948 -121.104244 32.771830 -56.056256 2.219393 -1.919495 0.012680 -0.079000 -0.117400 -0.082050 
0.427110 16.563600 -9.029860 4.370255 -11.634060 7.121094 -15.354839 14.031077 2.635252 19.935449 0.684840 -24.930075 1.704325 7.120327 27.550118 -0.044129 5.388163 2.573665 0.358890 0.065940 0.326880 18.197734 -8.423484 4.760962 -14.650905 14.568443 -41.642974 9.640891 -10.599605 46.716215 -0.844741 -6.916439 1.933482 -0.100140 0.076020 0.294080 -3.088979 -4.991319 -8.584633 26.237863 -14.991131 47.380824 -4.522332 0.595259 -20.966617 3.409228 -7.734416 -2.949519 -10.815934 7.611288 34.774516 -8.330250 8.204360 -13.252960 -12.009611 23.150932 -7.618381 -23.913011 18.544392 -5.537713 -1.484586 18.622220 -1.361139 -4.004217 2.291425 0.482050 -0.029250 0.123850 0.165470 1.470493 -9.869024 2.613126 44.337864 18.964442 5.045950 -126.994272 19.822389 -40.158559 2.223609 -2.191812 -0.003160 -0.034670 -0.146240 -0.084740 
0.405890 16.606290 -9.098010 5.478460 -13.250733 4.556010 -15.640015 14.599568 2.822946 18.367765 0.614962 -23.842744 -0.898579 9.531788 34.013561 0.086528 6.724678 2.102683 0.347950 0.030100 0.345180 17.903282 -8.061411 4.472294 -13.776990 14.720140 -39.036221 8.138692 -9.164237 46.829608 -0.797821 -6.644496 2.024140 -0.092010 0.074020 0.264440 -2.269776 -6.724243 -8.738104 20.472921 -11.848211 54.247603 -0.770171 4.776167 -23.887125 3.202505 -7.030250 -3.756544 -9.588310 7.100814 36.987411 -7.770620 7.907310 -13.640930 -10.846387 23.143600 -7.931462 -19.870247 17.273310 -4.790615 -2.355426 18.200639 -1.763474 -4.017820 2.164903 0.550390 -0.050770 0.123660 0.145080 0.663249 -7.222087 2.864183 42.998379 22.674587 6.934947 -133.668040 9.156377 -21.933686 2.229552 -2.403208 -0.064440 0.012380 -0.119040 -0.124330 
0.384330 16.661650 -9.179770 6.858599 -13.199317 3.204902 -15.977717 14.911945 3.195192 16.614666 -0.003377 -24.354616 -4.857384 12.208378 38.009771 0.253002 7.881502 1.685453 0.318920 -0.014950 0.307060 17.613038 -7.570283 4.122691 -13.893122 14.260964 -37.429184 7.421464 -8.285787 46.484789 -0.743268 -6.428773 2.078425 -0.098820 0.077850 0.246200 -1.435970 -8.498319 -8.992063 15.117761 -7.740926 58.994670 3.255948 10.012177 -26.279719 2.843284 -6.272245 -5.058157 -8.856639 5.642210 39.327857 -4.570350 5.941040 -13.205980 -8.125540 22.548739 -8.135514 -19.095285 12.810051 -4.547416 -3.262787 20.424876 -1.838172 -4.094336 2.116525 0.606440 -0.077900 0.113000 0.120330 -1.075992 -4.098865 3.526860 39.227731 22.398345 4.619907 -140.604014 0.796780 -0.961031 2.316713 -2.600016 -0.102720 0.027440 -0.067820 -0.142470 
0.400210 16.709090 -9.267750 6.349457 -13.285371 3.120736 -16.209940 14.698524 3.670704 16.285217 -0.589847 -26.855601 -9.245784 15.396815 41.667537 0.500063 9.188136 1.258122 0.325750 0.022660 0.315230 17.486489 -7.115332 3.924088 -13.064593 14.337305 -37.068692 7.477163 -7.978775 45.990198 -0.706895 -6.324796 2.117087 -0.046480 0.117830 0.238220 -1.004028 -9.246017 -9.248438 13.512038 -5.218798 61.021231 5.327958 13.253106 -26.809295 3.024528 -4.959496 -4.370693 -6.491259 4.268862 39.159803 -4.334210 5.526010 -12.115260 -7.361320 22.907458 -9.463436 -16.974831 7.504061 -3.733452 -4.575474 22.195710 -1.997944 -4.196871 1.991712 0.554240 -0.021970 0.085570 0.121440 -2.125836 -3.417569 3.268471 36.910188 24.210930 4.792971 -146.286753 -2.644133 12.949702 2.349704 -2.782948 -0.120140 0.060400 -0.068020 -0.140280 
0.412120 16.743180 -9.377000 5.481232 -14.129002 1.542871 -16.330242 14.540297 4.022589 16.290946 -0.477433 -27.586158 -13.438342 18.451963 43.703447 0.808942 10.233800 0.962253 0.310910 0.011280 0.303830 17.419494 -7.057504 3.546324 -10.999099 14.028476 -33.993302 6.819721 -7.194865 44.641466 -0.637509 -6.000909 2.255243 -0.050350 0.135170 0.208920 -0.767675 -9.340205 -9.324579 12.189073 -1.955451 63.842005 7.142711 16.232057 -23.834203 3.107644 -2.621129 -5.073781 -2.471183 2.973071 37.484639 -2.743690 4.850120 -11.074180 -6.654446 20.147792 -9.018124 -16.586481 4.515148 -3.622495 -7.820112 21.042595 -2.676618 -4.153172 1.999264 0.531180 -0.010780 0.060540 0.134410 -2.864749 -0.914579 4.958516 36.285334 22.576666 1.668200 -145.004871 -1.131784 -1.828501 2.267113 -2.670331 -0.135320 0.064740 -0.086280 -0.137090 
